# xmcd
# Track frame offsets:
# 150
# 12473
# 30567
# 42776
# 55656
# 67238
# 81985
# 95241
# 112404
# 130296
# 143399
# 161229
# 174473
# 190500
# 203412
# 216893
#
# Disc length: 3151 seconds
# Revision: 1
# Processed by: cddbd v1.5.1PL0 Copyright (c) Steve Scherf et al.
# Submitted via: VisiTrax 2.9.10.228 - For more info visit www.synapsa.com
#
DISCID=e50c4d10
DTITLE=Berry Gordy III - The Magic of Motown
DYEAR=2003
DGENRE=Blues
TTITLE0=Baby Love
TTITLE1=What's Goin' On
TTITLE2=My Girl
TTITLE3=Where Did Our Love Go
TTITLE4=I Can't Help Myself
TTITLE5=You Are The Sunshine Of My Life
TTITLE6=Stop! In The Name Of Love
TTITLE7=Isn't She Lovely
TTITLE8=Beach Out I'll Be There
TTITLE9=Merey Merey Me
TTITLE10=Superstition
TTITLE11=You Can't Hurry Love
TTITLE12=Send One Your Love
TTITLE13=You Keep Me Hangin' On
TTITLE14=For Once In My Life
TTITLE15=I Just Called To Say I Love You
EXTD=YEAR: 2003
EXTT0=
EXTT1=
EXTT2=
EXTT3=
EXTT4=
EXTT5=
EXTT6=
EXTT7=
EXTT8=
EXTT9=
EXTT10=
EXTT11=
EXTT12=
EXTT13=
EXTT14=
EXTT15=
PLAYORDER=
